<svg xmlns="http://www.w3.org/2000/svg" width="320" height="240" viewBox="0 0 320 240">
  <!-- Background -->
  <rect width="320" height="240" fill="#0a0014"/>

  <!-- Grid -->
  <defs>
    <pattern id="grid-mem" width="20" height="20" patternUnits="userSpaceOnUse">
      <path d="M 20 0 L 0 0 0 20" fill="none" stroke="#ff10f033" stroke-width="0.5"/>
    </pattern>
  </defs>
  <rect width="320" height="240" fill="url(#grid-mem)"/>

  <!-- Cards -->
  <!-- Row 1 -->
  <rect x="40" y="50" width="50" height="70" fill="#ff10f0" stroke="#00ffff" stroke-width="2"/>
  <text x="65" y="95" fill="#000" font-size="30" text-anchor="middle">🎴</text>

  <rect x="100" y="50" width="50" height="70" fill="#1a0028" stroke="#ff10f0" stroke-width="2"/>
  <text x="125" y="95" fill="#ff10f0" font-size="30" text-anchor="middle">?</text>

  <rect x="160" y="50" width="50" height="70" fill="#ffff00" stroke="#00ffff" stroke-width="2"/>
  <text x="185" y="95" fill="#000" font-size="30" text-anchor="middle">🎮</text>

  <rect x="220" y="50" width="50" height="70" fill="#1a0028" stroke="#ff10f0" stroke-width="2"/>
  <text x="245" y="95" fill="#ff10f0" font-size="30" text-anchor="middle">?</text>

  <!-- Row 2 -->
  <rect x="40" y="130" width="50" height="70" fill="#00ffff" stroke="#00ffff" stroke-width="2"/>
  <text x="65" y="175" fill="#000" font-size="30" text-anchor="middle">👾</text>

  <rect x="100" y="130" width="50" height="70" fill="#00ffff" stroke="#00ffff" stroke-width="2"/>
  <text x="125" y="175" fill="#000" font-size="30" text-anchor="middle">👾</text>

  <rect x="160" y="130" width="50" height="70" fill="#1a0028" stroke="#ff10f0" stroke-width="2"/>
  <text x="185" y="175" fill="#ff10f0" font-size="30" text-anchor="middle">?</text>

  <rect x="220" y="130" width="50" height="70" fill="#1a0028" stroke="#ff10f0" stroke-width="2"/>
  <text x="245" y="175" fill="#ff10f0" font-size="30" text-anchor="middle">?</text>

  <!-- Title -->
  <text x="160" y="225" fill="#00ffff" font-family="monospace" font-size="12" text-anchor="middle">MEMORY GAME</text>
</svg>
