<svg xmlns="http://www.w3.org/2000/svg" width="320" height="240" viewBox="0 0 320 240">
  <!-- Background -->
  <rect width="320" height="240" fill="#0a0014"/>

  <!-- Grid -->
  <defs>
    <pattern id="grid-si" width="20" height="20" patternUnits="userSpaceOnUse">
      <path d="M 20 0 L 0 0 0 20" fill="none" stroke="#ff10f033" stroke-width="0.5"/>
    </pattern>
  </defs>
  <rect width="320" height="240" fill="url(#grid-si)"/>

  <!-- Aliens Row 1 -->
  <text x="60" y="60" fill="#ff10f0" font-size="20">๐พ</text>
  <text x="100" y="60" fill="#ff10f0" font-size="20">๐พ</text>
  <text x="140" y="60" fill="#ff10f0" font-size="20">๐พ</text>
  <text x="180" y="60" fill="#ff10f0" font-size="20">๐พ</text>
  <text x="220" y="60" fill="#ff10f0" font-size="20">๐พ</text>

  <!-- Aliens Row 2 -->
  <text x="60" y="90" fill="#00ffff" font-size="20">๐พ</text>
  <text x="100" y="90" fill="#00ffff" font-size="20">๐พ</text>
  <text x="140" y="90" fill="#00ffff" font-size="20">๐พ</text>
  <text x="180" y="90" fill="#00ffff" font-size="20">๐พ</text>
  <text x="220" y="90" fill="#00ffff" font-size="20">๐พ</text>

  <!-- Bullets -->
  <rect x="158" y="140" width="4" height="12" fill="#ffff00"/>
  <rect x="118" y="110" width="4" height="12" fill="#ff10f0"/>

  <!-- Player ship -->
  <polygon points="160,200 150,210 170,210" fill="#39ff14" stroke="#00ffff" stroke-width="2"/>
  <rect x="155" y="195" width="10" height="5" fill="#39ff14"/>

  <!-- Barriers -->
  <rect x="40" y="160" width="30" height="20" fill="#00ffff" opacity="0.5"/>
  <rect x="130" y="160" width="30" height="20" fill="#00ffff" opacity="0.5"/>
  <rect x="220" y="160" width="30" height="20" fill="#00ffff" opacity="0.5"/>

  <!-- Score and lives -->
  <text x="10" y="20" fill="#ffff00" font-family="monospace" font-size="14" font-weight="bold">SCORE: 1250</text>
  <text x="250" y="20" fill="#ff10f0" font-family="monospace" font-size="14" font-weight="bold">โคโคโค</text>

  <!-- Title -->
  <text x="160" y="230" fill="#00ffff" font-family="monospace" font-size="12" text-anchor="middle">SPACE INVADERS</text>
</svg>
